<?xml version="1.0" encoding="UTF-8" standalone="no"?>
<!DOCTYPE svg PUBLIC "-//W3C//DTD SVG 1.1//EN"
 "http://www.w3.org/Graphics/SVG/1.1/DTD/svg11.dtd">
<!-- Generated by graphviz version 2.38.0 (20140413.2041)
 -->
<!-- Title: Automaton_metaclass Pages: 1 -->
<svg width="1164pt" height="729pt"
 viewBox="0.00 0.00 1164.34 729.00" xmlns="http://www.w3.org/2000/svg" xmlns:xlink="http://www.w3.org/1999/xlink">
<g id="graph0" class="graph" transform="scale(1 1) rotate(0) translate(4 725)">
<title>Automaton_metaclass</title>
<polygon fill="white" stroke="none" points="-4,4 -4,-725 1160.34,-725 1160.34,4 -4,4"/>
<!-- INIT -->
<g id="node1" class="node"><title>INIT</title>
<polygon fill="blue" stroke="black" points="559.495,-721 505.495,-721 505.495,-685 559.495,-685 559.495,-721"/>
<text text-anchor="middle" x="532.495" y="-699.3" font-family="Times,serif" font-size="14.00">INIT</text>
</g>
<!-- INIT&#45;&gt;INIT -->
<g id="edge5" class="edge"><title>INIT&#45;&gt;INIT</title>
<path fill="none" stroke="green" d="M559.736,-712.366C569.519,-712.567 577.495,-709.445 577.495,-703 577.495,-699.072 574.533,-696.379 570.005,-694.919"/>
<polygon fill="green" stroke="green" points="570.093,-691.403 559.736,-693.634 569.224,-698.349 570.093,-691.403"/>
</g>
<!-- SELECTING -->
<g id="node4" class="node"><title>SELECTING</title>
<ellipse fill="none" stroke="black" cx="58.4948" cy="-601" rx="58.4896" ry="18"/>
<text text-anchor="middle" x="58.4948" y="-597.3" font-family="Times,serif" font-size="14.00">SELECTING</text>
</g>
<!-- INIT&#45;&gt;SELECTING -->
<g id="edge27" class="edge"><title>INIT&#45;&gt;SELECTING</title>
<path fill="none" stroke="blue" d="M505.356,-699.889C457.36,-695.824 354.538,-685.622 269.495,-667 211.657,-654.335 146.796,-633.289 104.445,-618.587"/>
<polygon fill="blue" stroke="blue" points="105.566,-615.271 94.9714,-615.273 103.255,-621.879 105.566,-615.271"/>
<text text-anchor="start" x="269.495" y="-655.8" font-family="Times,serif" font-size="14.00">timeout_delay_selecting/10.0s</text>
<text text-anchor="middle" x="354.995" y="-640.8" font-family="Times,serif" font-size="14.00">&gt;[on_timeout_delay_selecting]</text>
</g>
<!-- END -->
<g id="node2" class="node"><title>END</title>
<polygon fill="green" stroke="black" points="479.402,-10.5442 479.402,-25.4558 461.297,-36 435.693,-36 417.587,-25.4558 417.587,-10.5442 435.693,-3.55271e-15 461.297,-0 479.402,-10.5442"/>
<text text-anchor="middle" x="448.495" y="-14.3" font-family="Times,serif" font-size="14.00">END</text>
</g>
<!-- END&#45;&gt;END -->
<g id="edge1" class="edge"><title>END&#45;&gt;END</title>
<path fill="none" stroke="green" d="M479.567,-24.7484C489.543,-24.6791 497.448,-22.4297 497.448,-18 497.448,-15.2314 494.36,-13.3145 489.609,-12.2493"/>
<polygon fill="green" stroke="green" points="489.864,-8.75757 479.567,-11.2516 489.172,-15.7233 489.864,-8.75757"/>
</g>
<!-- ERROR -->
<g id="node3" class="node"><title>ERROR</title>
<polygon fill="red" stroke="black" points="492.228,-83.5442 492.228,-98.4558 466.61,-109 430.38,-109 404.761,-98.4558 404.761,-83.5442 430.38,-73 466.61,-73 492.228,-83.5442"/>
<text text-anchor="middle" x="448.495" y="-87.3" font-family="Times,serif" font-size="14.00">ERROR</text>
</g>
<!-- ERROR&#45;&gt;END -->
<g id="edge6" class="edge"><title>ERROR&#45;&gt;END</title>
<path fill="none" stroke="green" d="M448.495,-72.8129C448.495,-64.7895 448.495,-55.0475 448.495,-46.0691"/>
<polygon fill="green" stroke="green" points="451.995,-46.0288 448.495,-36.0288 444.995,-46.0289 451.995,-46.0288"/>
</g>
<!-- ERROR&#45;&gt;ERROR -->
<g id="edge7" class="edge"><title>ERROR&#45;&gt;ERROR</title>
<path fill="none" stroke="green" d="M492.247,-97.6165C502.527,-97.0727 510.111,-94.8672 510.111,-91 510.111,-88.583 507.149,-86.8151 502.417,-85.6963"/>
<polygon fill="green" stroke="green" points="502.613,-82.1926 492.247,-84.3835 501.717,-89.135 502.613,-82.1926"/>
</g>
<!-- SELECTING&#45;&gt;ERROR -->
<g id="edge18" class="edge"><title>SELECTING&#45;&gt;ERROR</title>
<path fill="none" stroke="blue" d="M61.2804,-582.71C64.2393,-562.815 68.4948,-529.138 68.4948,-500 68.4948,-500 68.4948,-500 68.4948,-192 68.4948,-125.402 289.539,-102.222 394.451,-94.9704"/>
<polygon fill="blue" stroke="blue" points="394.788,-98.4558 404.533,-94.298 394.322,-91.4713 394.788,-98.4558"/>
<text text-anchor="start" x="68.4948" y="-349.8" font-family="Times,serif" font-size="14.00">timeout_selecting/60.0s</text>
<text text-anchor="middle" x="141.495" y="-334.8" font-family="Times,serif" font-size="14.00">&gt;[on_retransmit_discover]</text>
</g>
<!-- SELECTING&#45;&gt;SELECTING -->
<g id="edge2" class="edge"><title>SELECTING&#45;&gt;SELECTING</title>
<path fill="none" stroke="green" d="M116.205,-603.975C127.208,-603.619 134.99,-602.628 134.99,-601 134.99,-599.932 131.638,-599.138 126.225,-598.617"/>
<polygon fill="green" stroke="green" points="126.394,-595.121 116.205,-598.025 125.981,-602.109 126.394,-595.121"/>
</g>
<!-- SELECTING&#45;&gt;SELECTING -->
<g id="edge11" class="edge"><title>SELECTING&#45;&gt;SELECTING</title>
<path fill="none" stroke="red" d="M113.82,-607.226C135.21,-607.502 152.99,-605.427 152.99,-601 152.99,-597.299 140.566,-595.242 123.994,-594.828"/>
<polygon fill="red" stroke="red" points="123.838,-591.327 113.82,-594.774 123.801,-598.327 123.838,-591.327"/>
<text text-anchor="start" x="152.99" y="-604.8" font-family="Times,serif" font-size="14.00">receive_offer</text>
<text text-anchor="middle" x="203.99" y="-589.8" font-family="Times,serif" font-size="14.00">&gt;[on_select_offer]</text>
</g>
<!-- SELECTING&#45;&gt;SELECTING -->
<g id="edge20" class="edge"><title>SELECTING&#45;&gt;SELECTING</title>
<path fill="none" stroke="blue" d="M111.747,-608.516C171.957,-612.539 254.99,-610.033 254.99,-601 254.99,-592.461 180.79,-589.755 121.813,-592.883"/>
<polygon fill="blue" stroke="blue" points="121.521,-589.394 111.747,-593.484 121.938,-596.381 121.521,-589.394"/>
<text text-anchor="start" x="254.99" y="-604.8" font-family="Times,serif" font-size="14.00">timeout_selecting/60.0s</text>
<text text-anchor="middle" x="327.99" y="-589.8" font-family="Times,serif" font-size="14.00">&gt;[on_retransmit_discover]</text>
</g>
<!-- REQUESTING -->
<g id="node6" class="node"><title>REQUESTING</title>
<ellipse fill="none" stroke="black" cx="342.495" cy="-499" rx="65.7887" ry="18"/>
<text text-anchor="middle" x="342.495" y="-495.3" font-family="Times,serif" font-size="14.00">REQUESTING</text>
</g>
<!-- SELECTING&#45;&gt;REQUESTING -->
<g id="edge10" class="edge"><title>SELECTING&#45;&gt;REQUESTING</title>
<path fill="none" stroke="red" d="M72.2762,-583.221C85.728,-568.057 107.611,-546.418 131.495,-535 173.741,-514.804 225.565,-506.012 267.28,-502.29"/>
<polygon fill="red" stroke="red" points="267.698,-505.768 277.381,-501.469 267.131,-498.791 267.698,-505.768"/>
<text text-anchor="start" x="131.495" y="-553.8" font-family="Times,serif" font-size="14.00">receive_offer</text>
<text text-anchor="middle" x="182.495" y="-538.8" font-family="Times,serif" font-size="14.00">&gt;[on_select_offer]</text>
</g>
<!-- SELECTING&#45;&gt;REQUESTING -->
<g id="edge19" class="edge"><title>SELECTING&#45;&gt;REQUESTING</title>
<path fill="none" stroke="blue" d="M112.663,-594.008C147.929,-588.941 194.461,-580.03 233.495,-565 261.741,-554.124 291.06,-536.203 312.167,-521.93"/>
<polygon fill="blue" stroke="blue" points="314.43,-524.621 320.682,-516.067 310.461,-518.855 314.43,-524.621"/>
<text text-anchor="start" x="292.495" y="-553.8" font-family="Times,serif" font-size="14.00">timeout_selecting/60.0s</text>
<text text-anchor="middle" x="365.495" y="-538.8" font-family="Times,serif" font-size="14.00">&gt;[on_retransmit_discover]</text>
</g>
<!-- BOUND -->
<g id="node5" class="node"><title>BOUND</title>
<ellipse fill="none" stroke="black" cx="698.495" cy="-397" rx="42.4939" ry="18"/>
<text text-anchor="middle" x="698.495" y="-393.3" font-family="Times,serif" font-size="14.00">BOUND</text>
</g>
<!-- BOUND&#45;&gt;BOUND -->
<g id="edge3" class="edge"><title>BOUND&#45;&gt;BOUND</title>
<path fill="none" stroke="green" d="M734.667,-406.361C747.9,-406.614 758.741,-403.494 758.741,-397 758.741,-392.282 753.018,-389.344 744.813,-388.188"/>
<polygon fill="green" stroke="green" points="744.841,-384.684 734.667,-387.639 744.463,-391.674 744.841,-384.684"/>
</g>
<!-- RENEWING -->
<g id="node8" class="node"><title>RENEWING</title>
<ellipse fill="none" stroke="black" cx="875.495" cy="-295" rx="57.6901" ry="18"/>
<text text-anchor="middle" x="875.495" y="-291.3" font-family="Times,serif" font-size="14.00">RENEWING</text>
</g>
<!-- BOUND&#45;&gt;RENEWING -->
<g id="edge21" class="edge"><title>BOUND&#45;&gt;RENEWING</title>
<path fill="none" stroke="blue" d="M677.136,-381.211C670.894,-375.668 664.852,-368.797 661.495,-361 656.222,-348.754 652.861,-341.161 661.495,-331 664.006,-328.045 751.994,-314.386 814.351,-305.032"/>
<polygon fill="blue" stroke="blue" points="815.135,-308.454 824.507,-303.512 814.1,-301.531 815.135,-308.454"/>
<text text-anchor="start" x="661.495" y="-349.8" font-family="Times,serif" font-size="14.00">renewing_time_expires/604800.0s</text>
<text text-anchor="middle" x="755.495" y="-334.8" font-family="Times,serif" font-size="14.00">&gt;[on_renewing_time_expires]</text>
</g>
<!-- REQUESTING&#45;&gt;INIT -->
<g id="edge13" class="edge"><title>REQUESTING&#45;&gt;INIT</title>
<path fill="none" stroke="red" d="M395.778,-509.565C411.897,-514.754 428.488,-522.735 440.495,-535 468.024,-563.121 449.999,-584.265 468.495,-619 479.71,-640.062 496.23,-661.326 509.676,-677.058"/>
<polygon fill="red" stroke="red" points="507.173,-679.513 516.383,-684.75 512.449,-674.913 507.173,-679.513"/>
<text text-anchor="middle" x="532.995" y="-597.3" font-family="Times,serif" font-size="14.00">receive_nak_requesting</text>
</g>
<!-- REQUESTING&#45;&gt;ERROR -->
<g id="edge22" class="edge"><title>REQUESTING&#45;&gt;ERROR</title>
<path fill="none" stroke="blue" d="M357.246,-481.265C372.308,-462.403 393.495,-430.156 393.495,-398 393.495,-398 393.495,-398 393.495,-192 393.495,-163.867 410.414,-136.179 425.485,-117.096"/>
<polygon fill="blue" stroke="blue" points="428.323,-119.156 431.993,-109.217 422.926,-114.698 428.323,-119.156"/>
<text text-anchor="start" x="393.495" y="-298.8" font-family="Times,serif" font-size="14.00">timeout_requesting/60.0s</text>
<text text-anchor="middle" x="462.995" y="-283.8" font-family="Times,serif" font-size="14.00">&gt;[on_retransmit_request]</text>
</g>
<!-- REQUESTING&#45;&gt;BOUND -->
<g id="edge12" class="edge"><title>REQUESTING&#45;&gt;BOUND</title>
<path fill="none" stroke="red" d="M407.511,-496.472C507.731,-493.436 690.552,-484.93 710.495,-463 720.062,-452.479 717.555,-436.913 712.422,-423.651"/>
<polygon fill="red" stroke="red" points="715.616,-422.222 708.354,-414.507 709.221,-425.067 715.616,-422.222"/>
<text text-anchor="start" x="717.495" y="-451.8" font-family="Times,serif" font-size="14.00">receive_ack_requesting</text>
<text text-anchor="middle" x="781.495" y="-436.8" font-family="Times,serif" font-size="14.00">&gt;[on_ack_requesting]</text>
</g>
<!-- REQUESTING&#45;&gt;REQUESTING -->
<g id="edge4" class="edge"><title>REQUESTING&#45;&gt;REQUESTING</title>
<path fill="none" stroke="green" d="M406.316,-503.43C417.967,-502.869 426.139,-501.393 426.139,-499 426.139,-497.392 422.45,-496.198 416.496,-495.418"/>
<polygon fill="green" stroke="green" points="416.572,-491.912 406.316,-494.57 415.991,-498.888 416.572,-491.912"/>
</g>
<!-- REQUESTING&#45;&gt;REQUESTING -->
<g id="edge23" class="edge"><title>REQUESTING&#45;&gt;REQUESTING</title>
<path fill="none" stroke="blue" d="M398.939,-508.263C423.29,-509.021 444.139,-505.934 444.139,-499 444.139,-493.041 428.741,-489.923 408.956,-489.645"/>
<polygon fill="blue" stroke="blue" points="408.906,-486.146 398.939,-489.737 408.97,-493.145 408.906,-486.146"/>
<text text-anchor="start" x="444.139" y="-502.8" font-family="Times,serif" font-size="14.00">timeout_requesting/60.0s</text>
<text text-anchor="middle" x="513.639" y="-487.8" font-family="Times,serif" font-size="14.00">&gt;[on_retransmit_request]</text>
</g>
<!-- REBINDING -->
<g id="node7" class="node"><title>REBINDING</title>
<ellipse fill="none" stroke="black" cx="579.495" cy="-193" rx="59.2899" ry="18"/>
<text text-anchor="middle" x="579.495" y="-189.3" font-family="Times,serif" font-size="14.00">REBINDING</text>
</g>
<!-- REBINDING&#45;&gt;INIT -->
<g id="edge8" class="edge"><title>REBINDING&#45;&gt;INIT</title>
<path fill="none" stroke="red" d="M576.839,-211.07C570.734,-254.199 558.022,-370.678 582.495,-463 584.84,-471.846 589.983,-472.2 592.495,-481 604.952,-524.645 596.383,-537.626 597.495,-583 597.887,-598.995 602.713,-603.875 597.495,-619 589.82,-641.248 573.456,-662.087 559.068,-677.319"/>
<polygon fill="red" stroke="red" points="556.283,-675.16 551.781,-684.751 561.281,-680.061 556.283,-675.16"/>
<text text-anchor="middle" x="644.495" y="-444.3" font-family="Times,serif" font-size="14.00">receive_nak_rebinding</text>
</g>
<!-- REBINDING&#45;&gt;ERROR -->
<g id="edge16" class="edge"><title>REBINDING&#45;&gt;ERROR</title>
<path fill="none" stroke="blue" d="M558.447,-175.933C536.58,-159.24 502.196,-132.993 477.704,-114.297"/>
<polygon fill="blue" stroke="blue" points="479.562,-111.313 469.49,-108.027 475.315,-116.877 479.562,-111.313"/>
<text text-anchor="start" x="533.495" y="-145.8" font-family="Times,serif" font-size="14.00">timeout_request_rebinding/75600.0s</text>
<text text-anchor="middle" x="633.495" y="-130.8" font-family="Times,serif" font-size="14.00">&gt;[on_retransmit_request_rebinding]</text>
</g>
<!-- REBINDING&#45;&gt;BOUND -->
<g id="edge9" class="edge"><title>REBINDING&#45;&gt;BOUND</title>
<path fill="none" stroke="red" d="M589.739,-210.838C593.026,-216.518 596.57,-222.952 599.495,-229 627.02,-285.912 614.181,-310.714 652.495,-361 656.486,-366.238 661.454,-371.091 666.635,-375.411"/>
<polygon fill="red" stroke="red" points="664.787,-378.406 674.843,-381.741 669.062,-372.863 664.787,-378.406"/>
<text text-anchor="start" x="626.495" y="-298.8" font-family="Times,serif" font-size="14.00">receive_ack_rebinding</text>
<text text-anchor="middle" x="688.495" y="-283.8" font-family="Times,serif" font-size="14.00">&gt;[on_rebinding]</text>
</g>
<!-- REBINDING&#45;&gt;REBINDING -->
<g id="edge17" class="edge"><title>REBINDING&#45;&gt;REBINDING</title>
<path fill="none" stroke="blue" d="M630.317,-202.347C645.15,-202.024 656.64,-198.908 656.64,-193 656.64,-188.523 650.041,-185.649 640.39,-184.379"/>
<polygon fill="blue" stroke="blue" points="640.542,-180.881 630.317,-183.653 640.039,-187.863 640.542,-180.881"/>
<text text-anchor="start" x="656.64" y="-196.8" font-family="Times,serif" font-size="14.00">timeout_request_rebinding/75600.0s</text>
<text text-anchor="middle" x="756.64" y="-181.8" font-family="Times,serif" font-size="14.00">&gt;[on_retransmit_request_rebinding]</text>
</g>
<!-- RENEWING&#45;&gt;INIT -->
<g id="edge14" class="edge"><title>RENEWING&#45;&gt;INIT</title>
<path fill="none" stroke="red" d="M931.174,-299.998C954.247,-304.429 979.528,-313.337 996.495,-331 1017.1,-352.456 1012.49,-366.249 1012.49,-396 1012.49,-602 1012.49,-602 1012.49,-602 1012.49,-692.296 682.83,-701.609 569.91,-702.151"/>
<polygon fill="red" stroke="red" points="569.668,-698.651 559.677,-702.178 569.686,-705.651 569.668,-698.651"/>
<text text-anchor="middle" x="1073.99" y="-495.3" font-family="Times,serif" font-size="14.00">receive_nak_renewing</text>
</g>
<!-- RENEWING&#45;&gt;ERROR -->
<g id="edge24" class="edge"><title>RENEWING&#45;&gt;ERROR</title>
<path fill="none" stroke="blue" d="M879.737,-277.004C885.001,-251.487 890.493,-203.265 865.495,-175 818.157,-121.476 603.927,-101.438 502.304,-94.8497"/>
<polygon fill="blue" stroke="blue" points="502.444,-91.3516 492.244,-94.2177 502.005,-98.3379 502.444,-91.3516"/>
<text text-anchor="start" x="881.495" y="-196.8" font-family="Times,serif" font-size="14.00">timeout_request_renewing/226800.0s</text>
<text text-anchor="middle" x="983.995" y="-181.8" font-family="Times,serif" font-size="14.00">&gt;[on_retransmit_request_renewing]</text>
</g>
<!-- RENEWING&#45;&gt;BOUND -->
<g id="edge15" class="edge"><title>RENEWING&#45;&gt;BOUND</title>
<path fill="none" stroke="red" d="M874.254,-313.175C872.251,-327.965 867.038,-348.8 853.495,-361 838.174,-374.801 787.894,-384.418 748.707,-390.032"/>
<polygon fill="red" stroke="red" points="748.183,-386.571 738.756,-391.407 749.141,-393.506 748.183,-386.571"/>
<text text-anchor="start" x="870.495" y="-349.8" font-family="Times,serif" font-size="14.00">receive_ack_renewing</text>
<text text-anchor="middle" x="931.495" y="-334.8" font-family="Times,serif" font-size="14.00">&gt;[on_renewing]</text>
</g>
<!-- RENEWING&#45;&gt;REBINDING -->
<g id="edge26" class="edge"><title>RENEWING&#45;&gt;REBINDING</title>
<path fill="none" stroke="blue" d="M824.99,-286.174C772.211,-277.784 695.3,-264.878 682.495,-259 663.254,-250.168 663.152,-240.681 645.495,-229 637.145,-223.477 627.831,-218.102 618.892,-213.289"/>
<polygon fill="blue" stroke="blue" points="620.25,-210.048 609.769,-208.493 616.992,-216.244 620.25,-210.048"/>
<text text-anchor="start" x="682.495" y="-247.8" font-family="Times,serif" font-size="14.00">rebinding_time_expires/1058400.0s</text>
<text text-anchor="middle" x="780.495" y="-232.8" font-family="Times,serif" font-size="14.00">&gt;[on_rebinding_time_expires]</text>
</g>
<!-- RENEWING&#45;&gt;RENEWING -->
<g id="edge25" class="edge"><title>RENEWING&#45;&gt;RENEWING</title>
<path fill="none" stroke="blue" d="M925.098,-304.354C939.856,-304.075 951.34,-300.957 951.34,-295 951.34,-290.486 944.745,-287.602 935.128,-286.348"/>
<polygon fill="blue" stroke="blue" points="935.318,-282.853 925.098,-285.646 934.829,-289.836 935.318,-282.853"/>
<text text-anchor="start" x="951.34" y="-298.8" font-family="Times,serif" font-size="14.00">timeout_request_renewing/226800.0s</text>
<text text-anchor="middle" x="1053.84" y="-283.8" font-family="Times,serif" font-size="14.00">&gt;[on_retransmit_request_renewing]</text>
</g>
</g>
</svg>
