<?xml version="1.0" encoding="UTF-8" standalone="no"?>
<!DOCTYPE svg PUBLIC "-//W3C//DTD SVG 1.1//EN"
 "http://www.w3.org/Graphics/SVG/1.1/DTD/svg11.dtd">
<!-- Generated by graphviz version 2.38.0 (20140413.2041)
 -->
<!-- Title: Automaton_metaclass Pages: 1 -->
<svg width="931pt" height="554pt"
 viewBox="0.00 0.00 931.49 554.00" xmlns="http://www.w3.org/2000/svg" xmlns:xlink="http://www.w3.org/1999/xlink">
<g id="graph0" class="graph" transform="scale(1 1) rotate(0) translate(4 550)">
<title>Automaton_metaclass</title>
<polygon fill="white" stroke="none" points="-4,4 -4,-550 927.495,-550 927.495,4 -4,4"/>
<!-- INIT -->
<g id="node1" class="node"><title>INIT</title>
<polygon fill="blue" stroke="black" points="596.495,-546 542.495,-546 542.495,-510 596.495,-510 596.495,-546"/>
<text text-anchor="middle" x="569.495" y="-524.3" font-family="Times,serif" font-size="14.00">INIT</text>
</g>
<!-- SELECTING -->
<g id="node6" class="node"><title>SELECTING</title>
<ellipse fill="none" stroke="black" cx="58.4948" cy="-426" rx="58.4896" ry="18"/>
<text text-anchor="middle" x="58.4948" y="-422.3" font-family="Times,serif" font-size="14.00">SELECTING</text>
</g>
<!-- INIT&#45;&gt;SELECTING -->
<g id="edge19" class="edge"><title>INIT&#45;&gt;SELECTING</title>
<path fill="none" stroke="blue" d="M542.336,-525.498C489.373,-522.202 368.783,-512.902 269.495,-492 211.382,-479.766 146.326,-458.533 104.016,-443.674"/>
<polygon fill="blue" stroke="blue" points="105.152,-440.363 94.5574,-440.325 102.816,-446.962 105.152,-440.363"/>
<text text-anchor="start" x="269.495" y="-480.8" font-family="Times,serif" font-size="14.00">timeout_delay_before_selecting/10.0s</text>
<text text-anchor="middle" x="373.495" y="-465.8" font-family="Times,serif" font-size="14.00">&gt;[action_transmit_discover]</text>
</g>
<!-- END -->
<g id="node2" class="node"><title>END</title>
<polygon fill="green" stroke="black" points="114.402,-112.544 114.402,-127.456 96.2971,-138 70.6925,-138 52.5874,-127.456 52.5874,-112.544 70.6925,-102 96.2971,-102 114.402,-112.544"/>
<text text-anchor="middle" x="83.4948" y="-116.3" font-family="Times,serif" font-size="14.00">END</text>
</g>
<!-- ERROR -->
<g id="node3" class="node"><title>ERROR</title>
<polygon fill="red" stroke="black" points="127.228,-214.544 127.228,-229.456 101.61,-240 65.3798,-240 39.7614,-229.456 39.7614,-214.544 65.3798,-204 101.61,-204 127.228,-214.544"/>
<text text-anchor="middle" x="83.4948" y="-218.3" font-family="Times,serif" font-size="14.00">ERROR</text>
</g>
<!-- ERROR&#45;&gt;END -->
<g id="edge1" class="edge"><title>ERROR&#45;&gt;END</title>
<path fill="none" stroke="green" d="M83.4948,-203.581C83.4948,-188.382 83.4948,-166.067 83.4948,-148.464"/>
<polygon fill="green" stroke="green" points="86.9949,-148.219 83.4948,-138.219 79.9949,-148.219 86.9949,-148.219"/>
</g>
<!-- REBINDING -->
<g id="node4" class="node"><title>REBINDING</title>
<ellipse fill="none" stroke="black" cx="490.495" cy="-18" rx="59.2899" ry="18"/>
<text text-anchor="middle" x="490.495" y="-14.3" font-family="Times,serif" font-size="14.00">REBINDING</text>
</g>
<!-- REBINDING&#45;&gt;INIT -->
<g id="edge2" class="edge"><title>REBINDING&#45;&gt;INIT</title>
<path fill="none" stroke="red" d="M544.672,-25.2466C633.292,-36.9894 799.495,-66.0685 799.495,-119 799.495,-427 799.495,-427 799.495,-427 799.495,-509.903 672.267,-524.804 607.062,-526.997"/>
<polygon fill="red" stroke="red" points="606.691,-523.505 596.782,-527.255 606.867,-530.503 606.691,-523.505"/>
<text text-anchor="middle" x="861.495" y="-269.3" font-family="Times,serif" font-size="14.00">receive_nak_rebinding</text>
</g>
<!-- REBINDING&#45;&gt;REBINDING -->
<g id="edge10" class="edge"><title>REBINDING&#45;&gt;REBINDING</title>
<path fill="none" stroke="blue" d="M541.317,-27.347C556.15,-27.0239 567.64,-23.9082 567.64,-18 567.64,-13.5227 561.041,-10.6491 551.39,-9.37918"/>
<polygon fill="blue" stroke="blue" points="551.542,-5.88119 541.317,-8.65304 551.039,-12.8631 551.542,-5.88119"/>
<text text-anchor="start" x="567.64" y="-21.8" font-family="Times,serif" font-size="14.00">timeout_request_rebinding/75600.0s</text>
<text text-anchor="middle" x="667.64" y="-6.8" font-family="Times,serif" font-size="14.00">&gt;[action_transmit_request]</text>
</g>
<!-- BOUND -->
<g id="node5" class="node"><title>BOUND</title>
<ellipse fill="none" stroke="black" cx="299.495" cy="-222" rx="42.4939" ry="18"/>
<text text-anchor="middle" x="299.495" y="-218.3" font-family="Times,serif" font-size="14.00">BOUND</text>
</g>
<!-- REBINDING&#45;&gt;BOUND -->
<g id="edge3" class="edge"><title>REBINDING&#45;&gt;BOUND</title>
<path fill="none" stroke="red" d="M440.922,-27.8723C397.443,-38.2372 335.673,-59.676 299.495,-102 274.903,-130.77 278.337,-148.835 285.495,-186 286.052,-188.892 286.845,-191.849 287.776,-194.758"/>
<polygon fill="red" stroke="red" points="284.557,-196.146 291.317,-204.304 291.12,-193.711 284.557,-196.146"/>
<text text-anchor="start" x="299.495" y="-123.8" font-family="Times,serif" font-size="14.00">receive_ack_rebinding</text>
<text text-anchor="middle" x="361.495" y="-108.8" font-family="Times,serif" font-size="14.00">&gt;[on_ack_requesting]</text>
</g>
<!-- RENEWING -->
<g id="node8" class="node"><title>RENEWING</title>
<ellipse fill="none" stroke="black" cx="490.495" cy="-120" rx="57.6901" ry="18"/>
<text text-anchor="middle" x="490.495" y="-116.3" font-family="Times,serif" font-size="14.00">RENEWING</text>
</g>
<!-- BOUND&#45;&gt;RENEWING -->
<g id="edge14" class="edge"><title>BOUND&#45;&gt;RENEWING</title>
<path fill="none" stroke="blue" d="M292.96,-204.057C288.606,-189.62 285.484,-169.176 296.495,-156 296.773,-155.667 374.634,-141.696 431.618,-131.508"/>
<polygon fill="blue" stroke="blue" points="432.407,-134.923 441.636,-129.718 431.176,-128.032 432.407,-134.923"/>
<text text-anchor="start" x="296.495" y="-174.8" font-family="Times,serif" font-size="14.00">renewing_time_expires/604800.0s</text>
<text text-anchor="middle" x="390.495" y="-159.8" font-family="Times,serif" font-size="14.00">&gt;[action_transmit_request]</text>
</g>
<!-- SELECTING&#45;&gt;ERROR -->
<g id="edge12" class="edge"><title>SELECTING&#45;&gt;ERROR</title>
<path fill="none" stroke="blue" d="M59.166,-407.989C60.2196,-384.836 62.6607,-342.143 67.4948,-306 70.0163,-287.148 74.0858,-266.11 77.4895,-249.931"/>
<polygon fill="blue" stroke="blue" points="80.9288,-250.586 79.6072,-240.074 74.0849,-249.115 80.9288,-250.586"/>
<text text-anchor="start" x="67.4948" y="-327.8" font-family="Times,serif" font-size="14.00">timeout_selecting/60.0s</text>
<text text-anchor="middle" x="144.995" y="-312.8" font-family="Times,serif" font-size="14.00">&gt;[action_transmit_discover]</text>
</g>
<!-- SELECTING&#45;&gt;SELECTING -->
<g id="edge5" class="edge"><title>SELECTING&#45;&gt;SELECTING</title>
<path fill="none" stroke="red" d="M115.206,-430.509C126.734,-430.018 134.99,-428.515 134.99,-426 134.99,-424.31 131.263,-423.078 125.321,-422.302"/>
<polygon fill="red" stroke="red" points="125.453,-418.801 115.206,-421.491 124.894,-425.779 125.453,-418.801"/>
<text text-anchor="start" x="134.99" y="-429.8" font-family="Times,serif" font-size="14.00">receive_offer</text>
<text text-anchor="middle" x="208.99" y="-414.8" font-family="Times,serif" font-size="14.00">&gt;[action_transmit_request]</text>
</g>
<!-- SELECTING&#45;&gt;SELECTING -->
<g id="edge13" class="edge"><title>SELECTING&#45;&gt;SELECTING</title>
<path fill="none" stroke="blue" d="M111.948,-433.366C179.734,-437.598 282.99,-435.143 282.99,-426 282.99,-417.303 189.571,-414.657 122.115,-418.062"/>
<polygon fill="blue" stroke="blue" points="121.736,-414.577 111.948,-418.634 122.129,-421.566 121.736,-414.577"/>
<text text-anchor="start" x="282.99" y="-429.8" font-family="Times,serif" font-size="14.00">timeout_selecting/60.0s</text>
<text text-anchor="middle" x="360.49" y="-414.8" font-family="Times,serif" font-size="14.00">&gt;[action_transmit_discover]</text>
</g>
<!-- REQUESTING -->
<g id="node7" class="node"><title>REQUESTING</title>
<ellipse fill="none" stroke="black" cx="297.495" cy="-324" rx="65.7887" ry="18"/>
<text text-anchor="middle" x="297.495" y="-320.3" font-family="Times,serif" font-size="14.00">REQUESTING</text>
</g>
<!-- SELECTING&#45;&gt;REQUESTING -->
<g id="edge4" class="edge"><title>SELECTING&#45;&gt;REQUESTING</title>
<path fill="none" stroke="red" d="M67.3726,-407.931C76.1942,-392.784 91.1835,-371.35 110.495,-360 152.069,-335.565 170.121,-351.014 217.495,-342 224.149,-340.734 231.101,-339.349 238.009,-337.935"/>
<polygon fill="red" stroke="red" points="238.977,-341.308 248.058,-335.85 237.556,-334.454 238.977,-341.308"/>
<text text-anchor="start" x="110.495" y="-378.8" font-family="Times,serif" font-size="14.00">receive_offer</text>
<text text-anchor="middle" x="184.495" y="-363.8" font-family="Times,serif" font-size="14.00">&gt;[action_transmit_request]</text>
</g>
<!-- SELECTING&#45;&gt;REQUESTING -->
<g id="edge11" class="edge"><title>SELECTING&#45;&gt;REQUESTING</title>
<path fill="none" stroke="blue" d="M114.374,-420.422C165.183,-415.342 235.613,-405.716 258.495,-390 272.025,-380.707 281.629,-365.04 287.92,-351.416"/>
<polygon fill="blue" stroke="blue" points="291.241,-352.549 291.925,-341.977 284.797,-349.816 291.241,-352.549"/>
<text text-anchor="start" x="283.495" y="-378.8" font-family="Times,serif" font-size="14.00">timeout_selecting/60.0s</text>
<text text-anchor="middle" x="360.995" y="-363.8" font-family="Times,serif" font-size="14.00">&gt;[action_transmit_discover]</text>
</g>
<!-- REQUESTING&#45;&gt;INIT -->
<g id="edge7" class="edge"><title>REQUESTING&#45;&gt;INIT</title>
<path fill="none" stroke="red" d="M359.079,-330.379C386.383,-335.054 417.834,-343.77 442.495,-360 481.477,-385.655 477.246,-406.855 505.495,-444 520.315,-463.487 537.235,-485.417 549.955,-501.84"/>
<polygon fill="red" stroke="red" points="547.297,-504.124 556.19,-509.883 552.83,-499.836 547.297,-504.124"/>
<text text-anchor="middle" x="569.995" y="-422.3" font-family="Times,serif" font-size="14.00">receive_nak_requesting</text>
</g>
<!-- REQUESTING&#45;&gt;ERROR -->
<g id="edge15" class="edge"><title>REQUESTING&#45;&gt;ERROR</title>
<path fill="none" stroke="blue" d="M247.649,-312.153C205.432,-302.855 151.034,-290.565 146.495,-288 129.046,-278.139 113.348,-261.972 101.985,-248.229"/>
<polygon fill="blue" stroke="blue" points="104.457,-245.713 95.4945,-240.063 98.9773,-250.069 104.457,-245.713"/>
<text text-anchor="start" x="146.495" y="-276.8" font-family="Times,serif" font-size="14.00">timeout_requesting/60.0s</text>
<text text-anchor="middle" x="220.495" y="-261.8" font-family="Times,serif" font-size="14.00">&gt;[action_transmit_request]</text>
</g>
<!-- REQUESTING&#45;&gt;BOUND -->
<g id="edge6" class="edge"><title>REQUESTING&#45;&gt;BOUND</title>
<path fill="none" stroke="red" d="M297.843,-305.581C298.147,-290.382 298.593,-268.067 298.946,-250.464"/>
<polygon fill="red" stroke="red" points="302.45,-250.287 299.15,-240.219 295.451,-250.147 302.45,-250.287"/>
<text text-anchor="start" x="299.495" y="-276.8" font-family="Times,serif" font-size="14.00">receive_ack_requesting</text>
<text text-anchor="middle" x="363.495" y="-261.8" font-family="Times,serif" font-size="14.00">&gt;[on_ack_requesting]</text>
</g>
<!-- REQUESTING&#45;&gt;REQUESTING -->
<g id="edge16" class="edge"><title>REQUESTING&#45;&gt;REQUESTING</title>
<path fill="none" stroke="blue" d="M353.788,-333.318C369.291,-332.868 381.139,-329.762 381.139,-324 381.139,-319.589 374.194,-316.734 363.981,-315.436"/>
<polygon fill="blue" stroke="blue" points="364.019,-311.93 353.788,-314.682 363.502,-318.911 364.019,-311.93"/>
<text text-anchor="start" x="381.139" y="-327.8" font-family="Times,serif" font-size="14.00">timeout_requesting/60.0s</text>
<text text-anchor="middle" x="455.139" y="-312.8" font-family="Times,serif" font-size="14.00">&gt;[action_transmit_request]</text>
</g>
<!-- RENEWING&#45;&gt;INIT -->
<g id="edge8" class="edge"><title>RENEWING&#45;&gt;INIT</title>
<path fill="none" stroke="red" d="M546.81,-124.212C572.865,-128.372 602.598,-137.281 623.495,-156 646.55,-176.652 648.495,-190.048 648.495,-221 648.495,-427 648.495,-427 648.495,-427 648.495,-458.194 624.533,-485.359 603.003,-503.472"/>
<polygon fill="red" stroke="red" points="600.53,-500.97 594.926,-509.961 604.914,-506.427 600.53,-500.97"/>
<text text-anchor="middle" x="709.995" y="-320.3" font-family="Times,serif" font-size="14.00">receive_nak_renewing</text>
</g>
<!-- RENEWING&#45;&gt;REBINDING -->
<g id="edge18" class="edge"><title>RENEWING&#45;&gt;REBINDING</title>
<path fill="none" stroke="blue" d="M490.495,-101.581C490.495,-86.3816 490.495,-64.0669 490.495,-46.4644"/>
<polygon fill="blue" stroke="blue" points="493.995,-46.219 490.495,-36.2191 486.995,-46.2191 493.995,-46.219"/>
<text text-anchor="start" x="490.495" y="-72.8" font-family="Times,serif" font-size="14.00">rebinding_time_expires/1058400.0s</text>
<text text-anchor="middle" x="588.495" y="-57.8" font-family="Times,serif" font-size="14.00">&gt;[action_transmit_request]</text>
</g>
<!-- RENEWING&#45;&gt;BOUND -->
<g id="edge9" class="edge"><title>RENEWING&#45;&gt;BOUND</title>
<path fill="none" stroke="red" d="M495.306,-138.019C498.28,-152.504 499.671,-172.977 488.495,-186 471.097,-206.273 401.531,-214.878 351.857,-218.48"/>
<polygon fill="red" stroke="red" points="351.326,-215.008 341.585,-219.175 351.799,-221.992 351.326,-215.008"/>
<text text-anchor="start" x="497.495" y="-174.8" font-family="Times,serif" font-size="14.00">receive_ack_renewing</text>
<text text-anchor="middle" x="558.495" y="-159.8" font-family="Times,serif" font-size="14.00">&gt;[on_renewing]</text>
</g>
<!-- RENEWING&#45;&gt;RENEWING -->
<g id="edge17" class="edge"><title>RENEWING&#45;&gt;RENEWING</title>
<path fill="none" stroke="blue" d="M540.098,-129.354C554.856,-129.075 566.34,-125.957 566.34,-120 566.34,-115.486 559.745,-112.602 550.128,-111.348"/>
<polygon fill="blue" stroke="blue" points="550.318,-107.853 540.098,-110.646 549.829,-114.836 550.318,-107.853"/>
<text text-anchor="start" x="566.34" y="-123.8" font-family="Times,serif" font-size="14.00">timeout_request_renewing/226800.0s</text>
<text text-anchor="middle" x="668.84" y="-108.8" font-family="Times,serif" font-size="14.00">&gt;[action_transmit_request]</text>
</g>
</g>
</svg>
