<?xml version="1.0" encoding="UTF-8" standalone="no"?>
<!DOCTYPE svg PUBLIC "-//W3C//DTD SVG 1.1//EN"
 "http://www.w3.org/Graphics/SVG/1.1/DTD/svg11.dtd">
<!-- Generated by graphviz version 2.38.0 (20140413.2041)
 -->
<!-- Title: packages_dhcpcanon Pages: 1 -->
<svg width="569pt" height="332pt"
 viewBox="0.00 0.00 568.77 332.00" xmlns="http://www.w3.org/2000/svg" xmlns:xlink="http://www.w3.org/1999/xlink">
<g id="graph0" class="graph" transform="scale(1 1) rotate(0) translate(4 328)">
<title>packages_dhcpcanon</title>
<polygon fill="white" stroke="none" points="-4,4 -4,-328 564.774,-328 564.774,4 -4,4"/>
<!-- 0 -->
<g id="node1" class="node"><title>0</title>
<polygon fill="none" stroke="black" points="100,-36 25,-36 25,-0 100,-0 100,-36"/>
<text text-anchor="middle" x="62.5" y="-14.3" font-family="Times,serif" font-size="14.00">dhcpcanon</text>
</g>
<!-- 1 -->
<g id="node2" class="node"><title>1</title>
<polygon fill="none" stroke="black" points="125,-108 7.10543e-15,-108 7.10543e-15,-72 125,-72 125,-108"/>
<text text-anchor="middle" x="62.5" y="-86.3" font-family="Times,serif" font-size="14.00">dhcpcanon._version</text>
</g>
<!-- 0&#45;&gt;1 -->
<g id="edge1" class="edge"><title>0&#45;&gt;1</title>
<path fill="none" stroke="black" d="M62.5,-36.3034C62.5,-44.0173 62.5,-53.2875 62.5,-61.8876"/>
<polygon fill="black" stroke="black" points="62.5,-71.8957 58.0001,-61.8956 62.5,-66.8957 62.5001,-61.8957 62.5001,-61.8957 62.5001,-61.8957 62.5,-66.8957 67.0001,-61.8957 62.5,-71.8957 62.5,-71.8957"/>
</g>
<!-- 2 -->
<g id="node3" class="node"><title>2</title>
<polygon fill="none" stroke="black" points="193,-180 54,-180 54,-144 193,-144 193,-180"/>
<text text-anchor="middle" x="123.5" y="-158.3" font-family="Times,serif" font-size="14.00">dhcpcanon.clientscript</text>
</g>
<!-- 4 -->
<g id="node5" class="node"><title>4</title>
<polygon fill="none" stroke="black" points="305,-324 176,-324 176,-288 305,-288 305,-324"/>
<text text-anchor="middle" x="240.5" y="-302.3" font-family="Times,serif" font-size="14.00">dhcpcanon.constants</text>
</g>
<!-- 2&#45;&gt;4 -->
<g id="edge2" class="edge"><title>2&#45;&gt;4</title>
<path fill="none" stroke="black" d="M137.613,-180.129C158.08,-204.969 196.134,-251.154 219.785,-279.858"/>
<polygon fill="black" stroke="black" points="226.337,-287.811 216.505,-282.955 223.158,-283.952 219.978,-280.093 219.978,-280.093 219.978,-280.093 223.158,-283.952 223.451,-277.231 226.337,-287.811 226.337,-287.811"/>
</g>
<!-- 3 -->
<g id="node4" class="node"><title>3</title>
<polygon fill="none" stroke="black" points="522.5,-36 402.5,-36 402.5,-0 522.5,-0 522.5,-36"/>
<text text-anchor="middle" x="462.5" y="-14.3" font-family="Times,serif" font-size="14.00">dhcpcanon.conflog</text>
</g>
<!-- 5 -->
<g id="node6" class="node"><title>5</title>
<polygon fill="none" stroke="black" points="373.5,-108 249.5,-108 249.5,-72 373.5,-72 373.5,-108"/>
<text text-anchor="middle" x="311.5" y="-86.3" font-family="Times,serif" font-size="14.00">dhcpcanon.dhcpcap</text>
</g>
<!-- 5&#45;&gt;4 -->
<g id="edge3" class="edge"><title>5&#45;&gt;4</title>
<path fill="none" stroke="black" d="M298.673,-108.366C291.823,-118.355 283.747,-131.391 278.5,-144 259.764,-189.024 249.164,-245.154 244.151,-277.847"/>
<polygon fill="black" stroke="black" points="242.661,-287.986 239.662,-277.438 243.388,-283.04 244.115,-278.093 244.115,-278.093 244.115,-278.093 243.388,-283.04 248.567,-278.747 242.661,-287.986 242.661,-287.986"/>
</g>
<!-- 7 -->
<g id="node8" class="node"><title>7</title>
<polygon fill="none" stroke="black" points="439,-180 288,-180 288,-144 439,-144 439,-180"/>
<text text-anchor="middle" x="363.5" y="-158.3" font-family="Times,serif" font-size="14.00">dhcpcanon.dhcpcaplease</text>
</g>
<!-- 5&#45;&gt;7 -->
<g id="edge4" class="edge"><title>5&#45;&gt;7</title>
<path fill="none" stroke="black" d="M324.354,-108.303C330.525,-116.611 338.037,-126.723 344.824,-135.859"/>
<polygon fill="black" stroke="black" points="350.794,-143.896 341.218,-138.552 347.812,-139.882 344.831,-135.868 344.831,-135.868 344.831,-135.868 347.812,-139.882 348.443,-133.185 350.794,-143.896 350.794,-143.896"/>
</g>
<!-- 6 -->
<g id="node7" class="node"><title>6</title>
<polygon fill="none" stroke="black" points="384,-36 239,-36 239,-0 384,-0 384,-36"/>
<text text-anchor="middle" x="311.5" y="-14.3" font-family="Times,serif" font-size="14.00">dhcpcanon.dhcpcapfsm</text>
</g>
<!-- 6&#45;&gt;2 -->
<g id="edge5" class="edge"><title>6&#45;&gt;2</title>
<path fill="none" stroke="black" d="M270.104,-36.1031C250.232,-45.2854 226.64,-57.6658 207.5,-72 182.761,-90.5275 159.013,-116.737 143.119,-135.916"/>
<polygon fill="black" stroke="black" points="136.601,-143.921 139.426,-133.325 139.758,-140.043 142.915,-136.166 142.915,-136.166 142.915,-136.166 139.758,-140.043 146.405,-139.008 136.601,-143.921 136.601,-143.921"/>
</g>
<!-- 6&#45;&gt;4 -->
<g id="edge6" class="edge"><title>6&#45;&gt;4</title>
<path fill="none" stroke="black" d="M276.335,-36.0586C262.518,-44.7459 248.153,-56.7372 240.5,-72 206.677,-139.455 222.147,-232.323 233.031,-277.75"/>
<polygon fill="black" stroke="black" points="235.533,-287.723 228.735,-279.118 234.316,-282.873 233.1,-278.023 233.1,-278.023 233.1,-278.023 234.316,-282.873 237.464,-276.929 235.533,-287.723 235.533,-287.723"/>
</g>
<!-- 6&#45;&gt;5 -->
<g id="edge7" class="edge"><title>6&#45;&gt;5</title>
<path fill="none" stroke="black" d="M311.5,-36.3034C311.5,-44.0173 311.5,-53.2875 311.5,-61.8876"/>
<polygon fill="black" stroke="black" points="311.5,-71.8957 307,-61.8956 311.5,-66.8957 311.5,-61.8957 311.5,-61.8957 311.5,-61.8957 311.5,-66.8957 316,-61.8957 311.5,-71.8957 311.5,-71.8957"/>
</g>
<!-- 8 -->
<g id="node9" class="node"><title>8</title>
<polygon fill="none" stroke="black" points="539,-108 392,-108 392,-72 539,-72 539,-108"/>
<text text-anchor="middle" x="465.5" y="-86.3" font-family="Times,serif" font-size="14.00">dhcpcanon.dhcpcaputils</text>
</g>
<!-- 6&#45;&gt;8 -->
<g id="edge8" class="edge"><title>6&#45;&gt;8</title>
<path fill="none" stroke="black" d="M349.173,-36.1239C370.132,-45.6508 396.405,-57.5932 418.677,-67.7167"/>
<polygon fill="black" stroke="black" points="427.95,-71.9317 416.984,-71.8903 423.398,-69.8626 418.846,-67.7936 418.846,-67.7936 418.846,-67.7936 423.398,-69.8626 420.708,-63.6969 427.95,-71.9317 427.95,-71.9317"/>
</g>
<!-- 9 -->
<g id="node10" class="node"><title>9</title>
<polygon fill="none" stroke="black" points="420,-252 307,-252 307,-216 420,-216 420,-252"/>
<text text-anchor="middle" x="363.5" y="-230.3" font-family="Times,serif" font-size="14.00">dhcpcanon.timers</text>
</g>
<!-- 6&#45;&gt;9 -->
<g id="edge9" class="edge"><title>6&#45;&gt;9</title>
<path fill="none" stroke="black" d="M384.093,-34.1111C452.792,-48.5798 545.848,-68.6888 548.5,-72 594.962,-130 492.071,-183.752 421.887,-212.088"/>
<polygon fill="black" stroke="black" points="412.22,-215.915 419.861,-208.05 416.869,-214.074 421.518,-212.234 421.518,-212.234 421.518,-212.234 416.869,-214.074 423.174,-216.418 412.22,-215.915 412.22,-215.915"/>
</g>
<!-- 7&#45;&gt;9 -->
<g id="edge10" class="edge"><title>7&#45;&gt;9</title>
<path fill="none" stroke="black" d="M363.5,-180.303C363.5,-188.017 363.5,-197.288 363.5,-205.888"/>
<polygon fill="black" stroke="black" points="363.5,-215.896 359,-205.896 363.5,-210.896 363.5,-205.896 363.5,-205.896 363.5,-205.896 363.5,-210.896 368,-205.896 363.5,-215.896 363.5,-215.896"/>
</g>
<!-- 9&#45;&gt;4 -->
<g id="edge11" class="edge"><title>9&#45;&gt;4</title>
<path fill="none" stroke="black" d="M333.411,-252.124C317.18,-261.361 296.958,-272.869 279.529,-282.788"/>
<polygon fill="black" stroke="black" points="270.705,-287.81 277.17,-278.953 275.05,-285.337 279.396,-282.864 279.396,-282.864 279.396,-282.864 275.05,-285.337 281.622,-286.775 270.705,-287.81 270.705,-287.81"/>
</g>
</g>
</svg>
