<?xml version="1.0" encoding="UTF-8" standalone="no"?>
<!DOCTYPE svg PUBLIC "-//W3C//DTD SVG 1.1//EN"
 "http://www.w3.org/Graphics/SVG/1.1/DTD/svg11.dtd">
<!-- Generated by graphviz version 2.38.0 (20140413.2041)
 -->
<!-- Title: packages_dhcpcanon Pages: 1 -->
<svg width="674pt" height="332pt"
 viewBox="0.00 0.00 673.50 332.00" xmlns="http://www.w3.org/2000/svg" xmlns:xlink="http://www.w3.org/1999/xlink">
<g id="graph0" class="graph" transform="scale(1 1) rotate(0) translate(4 328)">
<title>packages_dhcpcanon</title>
<polygon fill="white" stroke="none" points="-4,4 -4,-328 669.5,-328 669.5,4 -4,4"/>
<!-- 0 -->
<g id="node1" class="node"><title>0</title>
<polygon fill="none" stroke="black" points="100,-36 25,-36 25,-0 100,-0 100,-36"/>
<text text-anchor="middle" x="62.5" y="-14.3" font-family="Times,serif" font-size="14.00">dhcpcanon</text>
</g>
<!-- 1 -->
<g id="node2" class="node"><title>1</title>
<polygon fill="none" stroke="black" points="125,-108 7.10543e-15,-108 7.10543e-15,-72 125,-72 125,-108"/>
<text text-anchor="middle" x="62.5" y="-86.3" font-family="Times,serif" font-size="14.00">dhcpcanon._version</text>
</g>
<!-- 0&#45;&gt;1 -->
<g id="edge1" class="edge"><title>0&#45;&gt;1</title>
<path fill="none" stroke="black" d="M62.5,-36.3034C62.5,-44.0173 62.5,-53.2875 62.5,-61.8876"/>
<polygon fill="black" stroke="black" points="62.5,-71.8957 58.0001,-61.8956 62.5,-66.8957 62.5001,-61.8957 62.5001,-61.8957 62.5001,-61.8957 62.5,-66.8957 67.0001,-61.8957 62.5,-71.8957 62.5,-71.8957"/>
</g>
<!-- 2 -->
<g id="node3" class="node"><title>2</title>
<polygon fill="none" stroke="black" points="193,-180 54,-180 54,-144 193,-144 193,-180"/>
<text text-anchor="middle" x="123.5" y="-158.3" font-family="Times,serif" font-size="14.00">dhcpcanon.clientscript</text>
</g>
<!-- 5 -->
<g id="node6" class="node"><title>5</title>
<polygon fill="none" stroke="black" points="388,-324 259,-324 259,-288 388,-288 388,-324"/>
<text text-anchor="middle" x="323.5" y="-302.3" font-family="Times,serif" font-size="14.00">dhcpcanon.constants</text>
</g>
<!-- 2&#45;&gt;5 -->
<g id="edge2" class="edge"><title>2&#45;&gt;5</title>
<path fill="none" stroke="black" d="M136.438,-180.301C151.695,-199.762 178.652,-231.342 207.5,-252 225.291,-264.74 246.633,-275.542 266.134,-284.004"/>
<polygon fill="black" stroke="black" points="275.535,-287.968 264.572,-288.229 270.928,-286.025 266.321,-284.083 266.321,-284.083 266.321,-284.083 270.928,-286.025 268.069,-279.936 275.535,-287.968 275.535,-287.968"/>
</g>
<!-- 3 -->
<g id="node4" class="node"><title>3</title>
<polygon fill="none" stroke="black" points="527,-36 414,-36 414,-0 527,-0 527,-36"/>
<text text-anchor="middle" x="470.5" y="-14.3" font-family="Times,serif" font-size="14.00">dhcpcanon.config</text>
</g>
<!-- 4 -->
<g id="node5" class="node"><title>4</title>
<polygon fill="none" stroke="black" points="665.5,-36 545.5,-36 545.5,-0 665.5,-0 665.5,-36"/>
<text text-anchor="middle" x="605.5" y="-14.3" font-family="Times,serif" font-size="14.00">dhcpcanon.conflog</text>
</g>
<!-- 6 -->
<g id="node7" class="node"><title>6</title>
<polygon fill="none" stroke="black" points="487.5,-108 363.5,-108 363.5,-72 487.5,-72 487.5,-108"/>
<text text-anchor="middle" x="425.5" y="-86.3" font-family="Times,serif" font-size="14.00">dhcpcanon.dhcpcap</text>
</g>
<!-- 6&#45;&gt;5 -->
<g id="edge3" class="edge"><title>6&#45;&gt;5</title>
<path fill="none" stroke="black" d="M427.816,-108.054C431.151,-139.236 434.09,-206.428 405.5,-252 397.595,-264.6 385.475,-274.789 372.958,-282.74"/>
<polygon fill="black" stroke="black" points="364.276,-287.889 370.582,-278.918 368.577,-285.339 372.877,-282.788 372.877,-282.788 372.877,-282.788 368.577,-285.339 375.173,-286.659 364.276,-287.889 364.276,-287.889"/>
</g>
<!-- 8 -->
<g id="node9" class="node"><title>8</title>
<polygon fill="none" stroke="black" points="605,-180 454,-180 454,-144 605,-144 605,-180"/>
<text text-anchor="middle" x="529.5" y="-158.3" font-family="Times,serif" font-size="14.00">dhcpcanon.dhcpcaplease</text>
</g>
<!-- 6&#45;&gt;8 -->
<g id="edge4" class="edge"><title>6&#45;&gt;8</title>
<path fill="none" stroke="black" d="M450.941,-108.124C464.287,-117.107 480.824,-128.237 495.278,-137.966"/>
<polygon fill="black" stroke="black" points="503.961,-143.81 493.152,-141.96 499.813,-141.018 495.665,-138.226 495.665,-138.226 495.665,-138.226 499.813,-141.018 498.178,-134.493 503.961,-143.81 503.961,-143.81"/>
</g>
<!-- 7 -->
<g id="node8" class="node"><title>7</title>
<polygon fill="none" stroke="black" points="396,-36 251,-36 251,-0 396,-0 396,-36"/>
<text text-anchor="middle" x="323.5" y="-14.3" font-family="Times,serif" font-size="14.00">dhcpcanon.dhcpcapfsm</text>
</g>
<!-- 7&#45;&gt;2 -->
<g id="edge5" class="edge"><title>7&#45;&gt;2</title>
<path fill="none" stroke="black" d="M275.535,-36.0319C253.713,-44.9748 228.202,-57.1757 207.5,-72 182.258,-90.0754 158.464,-116.513 142.689,-135.878"/>
<polygon fill="black" stroke="black" points="136.438,-143.699 139.166,-133.078 139.56,-139.793 142.682,-135.887 142.682,-135.887 142.682,-135.887 139.56,-139.793 146.197,-138.696 136.438,-143.699 136.438,-143.699"/>
</g>
<!-- 7&#45;&gt;5 -->
<g id="edge6" class="edge"><title>7&#45;&gt;5</title>
<path fill="none" stroke="black" d="M313.472,-36.164C294.657,-69.4741 254.686,-145.791 240.5,-216 237.331,-231.683 232.812,-237.968 240.5,-252 247.441,-264.668 258.842,-274.748 271.003,-282.567"/>
<polygon fill="black" stroke="black" points="279.939,-287.866 269.042,-286.636 275.638,-285.316 271.337,-282.766 271.337,-282.766 271.337,-282.766 275.638,-285.316 273.632,-278.895 279.939,-287.866 279.939,-287.866"/>
</g>
<!-- 7&#45;&gt;6 -->
<g id="edge7" class="edge"><title>7&#45;&gt;6</title>
<path fill="none" stroke="black" d="M348.452,-36.1239C361.542,-45.1069 377.76,-56.2375 391.936,-65.9659"/>
<polygon fill="black" stroke="black" points="400.452,-71.8102 389.661,-69.8621 396.33,-68.981 392.207,-66.1518 392.207,-66.1518 392.207,-66.1518 396.33,-68.981 394.753,-62.4415 400.452,-71.8102 400.452,-71.8102"/>
</g>
<!-- 9 -->
<g id="node10" class="node"><title>9</title>
<polygon fill="none" stroke="black" points="397,-252 250,-252 250,-216 397,-216 397,-252"/>
<text text-anchor="middle" x="323.5" y="-230.3" font-family="Times,serif" font-size="14.00">dhcpcanon.dhcpcaputils</text>
</g>
<!-- 7&#45;&gt;9 -->
<g id="edge8" class="edge"><title>7&#45;&gt;9</title>
<path fill="none" stroke="black" d="M323.5,-36.1508C323.5,-73.1683 323.5,-160.819 323.5,-205.614"/>
<polygon fill="black" stroke="black" points="323.5,-215.768 319,-205.768 323.5,-210.768 323.5,-205.768 323.5,-205.768 323.5,-205.768 323.5,-210.768 328,-205.768 323.5,-215.768 323.5,-215.768"/>
</g>
<!-- 10 -->
<g id="node11" class="node"><title>10</title>
<polygon fill="none" stroke="black" points="586,-252 473,-252 473,-216 586,-216 586,-252"/>
<text text-anchor="middle" x="529.5" y="-230.3" font-family="Times,serif" font-size="14.00">dhcpcanon.timers</text>
</g>
<!-- 7&#45;&gt;10 -->
<g id="edge9" class="edge"><title>7&#45;&gt;10</title>
<path fill="none" stroke="black" d="M393.148,-36.0405C425.296,-44.9852 463.553,-57.1851 496.5,-72 552.532,-97.1955 584.43,-90.4258 614.5,-144 622.331,-157.952 622.264,-166.01 614.5,-180 607.369,-192.849 595.685,-202.99 583.231,-210.811"/>
<polygon fill="black" stroke="black" points="574.531,-215.86 580.922,-206.948 578.856,-213.35 583.18,-210.84 583.18,-210.84 583.18,-210.84 578.856,-213.35 585.439,-214.732 574.531,-215.86 574.531,-215.86"/>
</g>
<!-- 8&#45;&gt;10 -->
<g id="edge10" class="edge"><title>8&#45;&gt;10</title>
<path fill="none" stroke="black" d="M529.5,-180.303C529.5,-188.017 529.5,-197.288 529.5,-205.888"/>
<polygon fill="black" stroke="black" points="529.5,-215.896 525,-205.896 529.5,-210.896 529.5,-205.896 529.5,-205.896 529.5,-205.896 529.5,-210.896 534,-205.896 529.5,-215.896 529.5,-215.896"/>
</g>
<!-- 9&#45;&gt;5 -->
<g id="edge11" class="edge"><title>9&#45;&gt;5</title>
<path fill="none" stroke="black" d="M323.5,-252.303C323.5,-260.017 323.5,-269.288 323.5,-277.888"/>
<polygon fill="black" stroke="black" points="323.5,-287.896 319,-277.896 323.5,-282.896 323.5,-277.896 323.5,-277.896 323.5,-277.896 323.5,-282.896 328,-277.896 323.5,-287.896 323.5,-287.896"/>
</g>
<!-- 10&#45;&gt;5 -->
<g id="edge12" class="edge"><title>10&#45;&gt;5</title>
<path fill="none" stroke="black" d="M479.37,-252.034C450.462,-261.858 413.931,-274.271 383.502,-284.611"/>
<polygon fill="black" stroke="black" points="373.855,-287.889 381.875,-280.411 378.589,-286.28 383.323,-284.672 383.323,-284.672 383.323,-284.672 378.589,-286.28 384.771,-288.932 373.855,-287.889 373.855,-287.889"/>
</g>
</g>
</svg>
