<?xml version="1.0" encoding="UTF-8" standalone="no"?>
<!DOCTYPE svg PUBLIC "-//W3C//DTD SVG 1.1//EN"
 "http://www.w3.org/Graphics/SVG/1.1/DTD/svg11.dtd">
<!-- Generated by graphviz version 2.38.0 (20140413.2041)
 -->
<!-- Title: packages_dhcpcanon Pages: 1 -->
<svg width="5057pt" height="44pt"
 viewBox="0.00 0.00 5056.50 44.00" xmlns="http://www.w3.org/2000/svg" xmlns:xlink="http://www.w3.org/1999/xlink">
<g id="graph0" class="graph" transform="scale(1 1) rotate(0) translate(4 40)">
<title>packages_dhcpcanon</title>
<polygon fill="white" stroke="none" points="-4,4 -4,-40 5052.5,-40 5052.5,4 -4,4"/>
<!-- 0 -->
<g id="node1" class="node"><title>0</title>
<polygon fill="none" stroke="black" points="397,-36 0,-36 0,-0 397,-0 397,-36"/>
<text text-anchor="middle" x="198.5" y="-14.3" font-family="Times,serif" font-size="14.00">/home/user/_my/code/dhcp&#45;related/dhcpcanon/dhcpcanon/__init__.py</text>
</g>
<!-- 1 -->
<g id="node2" class="node"><title>1</title>
<polygon fill="none" stroke="black" points="813.5,-36 415.5,-36 415.5,-0 813.5,-0 813.5,-36"/>
<text text-anchor="middle" x="614.5" y="-14.3" font-family="Times,serif" font-size="14.00">/home/user/_my/code/dhcp&#45;related/dhcpcanon/dhcpcanon/_version.py</text>
</g>
<!-- 2 -->
<g id="node3" class="node"><title>2</title>
<polygon fill="none" stroke="black" points="1243.5,-36 831.5,-36 831.5,-0 1243.5,-0 1243.5,-36"/>
<text text-anchor="middle" x="1037.5" y="-14.3" font-family="Times,serif" font-size="14.00">/home/user/_my/code/dhcp&#45;related/dhcpcanon/dhcpcanon/clientscript.py</text>
</g>
<!-- 3 -->
<g id="node4" class="node"><title>3</title>
<polygon fill="none" stroke="black" points="1655,-36 1262,-36 1262,-0 1655,-0 1655,-36"/>
<text text-anchor="middle" x="1458.5" y="-14.3" font-family="Times,serif" font-size="14.00">/home/user/_my/code/dhcp&#45;related/dhcpcanon/dhcpcanon/conflog.py</text>
</g>
<!-- 4 -->
<g id="node5" class="node"><title>4</title>
<polygon fill="none" stroke="black" points="2075.5,-36 1673.5,-36 1673.5,-0 2075.5,-0 2075.5,-36"/>
<text text-anchor="middle" x="1874.5" y="-14.3" font-family="Times,serif" font-size="14.00">/home/user/_my/code/dhcp&#45;related/dhcpcanon/dhcpcanon/constants.py</text>
</g>
<!-- 5 -->
<g id="node6" class="node"><title>5</title>
<polygon fill="none" stroke="black" points="2503.5,-36 2093.5,-36 2093.5,-0 2503.5,-0 2503.5,-36"/>
<text text-anchor="middle" x="2298.5" y="-14.3" font-family="Times,serif" font-size="14.00">/home/user/_my/code/dhcp&#45;related/dhcpcanon/dhcpcanon/dhcpcanon.py</text>
</g>
<!-- 6 -->
<g id="node7" class="node"><title>6</title>
<polygon fill="none" stroke="black" points="2918,-36 2521,-36 2521,-0 2918,-0 2918,-36"/>
<text text-anchor="middle" x="2719.5" y="-14.3" font-family="Times,serif" font-size="14.00">/home/user/_my/code/dhcp&#45;related/dhcpcanon/dhcpcanon/dhcpcap.py</text>
</g>
<!-- 7 -->
<g id="node8" class="node"><title>7</title>
<polygon fill="none" stroke="black" points="3354.5,-36 2936.5,-36 2936.5,-0 3354.5,-0 3354.5,-36"/>
<text text-anchor="middle" x="3145.5" y="-14.3" font-family="Times,serif" font-size="14.00">/home/user/_my/code/dhcp&#45;related/dhcpcanon/dhcpcanon/dhcpcapfsm.py</text>
</g>
<!-- 8 -->
<g id="node9" class="node"><title>8</title>
<polygon fill="none" stroke="black" points="3796.5,-36 3372.5,-36 3372.5,-0 3796.5,-0 3796.5,-36"/>
<text text-anchor="middle" x="3584.5" y="-14.3" font-family="Times,serif" font-size="14.00">/home/user/_my/code/dhcp&#45;related/dhcpcanon/dhcpcanon/dhcpcaplease.py</text>
</g>
<!-- 9 -->
<g id="node10" class="node"><title>9</title>
<polygon fill="none" stroke="black" points="4234.5,-36 3814.5,-36 3814.5,-0 4234.5,-0 4234.5,-36"/>
<text text-anchor="middle" x="4024.5" y="-14.3" font-family="Times,serif" font-size="14.00">/home/user/_my/code/dhcp&#45;related/dhcpcanon/dhcpcanon/dhcpcaputils.py</text>
</g>
<!-- 10 -->
<g id="node11" class="node"><title>10</title>
<polygon fill="none" stroke="black" points="4644.5,-36 4252.5,-36 4252.5,-0 4644.5,-0 4644.5,-36"/>
<text text-anchor="middle" x="4448.5" y="-14.3" font-family="Times,serif" font-size="14.00">/home/user/_my/code/dhcp&#45;related/dhcpcanon/dhcpcanon/netutils.py</text>
</g>
<!-- 11 -->
<g id="node12" class="node"><title>11</title>
<polygon fill="none" stroke="black" points="5048.5,-36 4662.5,-36 4662.5,-0 5048.5,-0 5048.5,-36"/>
<text text-anchor="middle" x="4855.5" y="-14.3" font-family="Times,serif" font-size="14.00">/home/user/_my/code/dhcp&#45;related/dhcpcanon/dhcpcanon/timers.py</text>
</g>
</g>
</svg>
