<?xml version="1.0" encoding="UTF-8" standalone="no"?>
<!DOCTYPE svg PUBLIC "-//W3C//DTD SVG 1.1//EN"
 "http://www.w3.org/Graphics/SVG/1.1/DTD/svg11.dtd">
<!-- Generated by graphviz version 2.38.0 (20140413.2041)
 -->
<!-- Title: packages_dhcpcanon Pages: 1 -->
<svg width="628pt" height="332pt"
 viewBox="0.00 0.00 628.43 332.00" xmlns="http://www.w3.org/2000/svg" xmlns:xlink="http://www.w3.org/1999/xlink">
<g id="graph0" class="graph" transform="scale(1 1) rotate(0) translate(4 328)">
<title>packages_dhcpcanon</title>
<polygon fill="white" stroke="none" points="-4,4 -4,-328 624.432,-328 624.432,4 -4,4"/>
<!-- 0 -->
<g id="node1" class="node"><title>0</title>
<polygon fill="none" stroke="black" points="100,-36 25,-36 25,-0 100,-0 100,-36"/>
<text text-anchor="middle" x="62.5" y="-14.3" font-family="Times,serif" font-size="14.00">dhcpcanon</text>
</g>
<!-- 1 -->
<g id="node2" class="node"><title>1</title>
<polygon fill="none" stroke="black" points="125,-108 7.10543e-15,-108 7.10543e-15,-72 125,-72 125,-108"/>
<text text-anchor="middle" x="62.5" y="-86.3" font-family="Times,serif" font-size="14.00">dhcpcanon._version</text>
</g>
<!-- 0&#45;&gt;1 -->
<g id="edge1" class="edge"><title>0&#45;&gt;1</title>
<path fill="none" stroke="black" d="M62.5,-36.3034C62.5,-44.0173 62.5,-53.2875 62.5,-61.8876"/>
<polygon fill="black" stroke="black" points="62.5,-71.8957 58.0001,-61.8956 62.5,-66.8957 62.5001,-61.8957 62.5001,-61.8957 62.5001,-61.8957 62.5,-66.8957 67.0001,-61.8957 62.5,-71.8957 62.5,-71.8957"/>
</g>
<!-- 2 -->
<g id="node3" class="node"><title>2</title>
<polygon fill="none" stroke="black" points="193,-252 54,-252 54,-216 193,-216 193,-252"/>
<text text-anchor="middle" x="123.5" y="-230.3" font-family="Times,serif" font-size="14.00">dhcpcanon.clientscript</text>
</g>
<!-- 4 -->
<g id="node5" class="node"><title>4</title>
<polygon fill="none" stroke="black" points="388,-324 259,-324 259,-288 388,-288 388,-324"/>
<text text-anchor="middle" x="323.5" y="-302.3" font-family="Times,serif" font-size="14.00">dhcpcanon.constants</text>
</g>
<!-- 2&#45;&gt;4 -->
<g id="edge2" class="edge"><title>2&#45;&gt;4</title>
<path fill="none" stroke="black" d="M172.17,-252.034C200.114,-261.815 235.396,-274.164 264.861,-284.476"/>
<polygon fill="black" stroke="black" points="274.612,-287.889 263.687,-288.833 269.893,-286.237 265.173,-284.586 265.173,-284.586 265.173,-284.586 269.893,-286.237 266.66,-280.338 274.612,-287.889 274.612,-287.889"/>
</g>
<!-- 3 -->
<g id="node4" class="node"><title>3</title>
<polygon fill="none" stroke="black" points="534.5,-36 414.5,-36 414.5,-0 534.5,-0 534.5,-36"/>
<text text-anchor="middle" x="474.5" y="-14.3" font-family="Times,serif" font-size="14.00">dhcpcanon.conflog</text>
</g>
<!-- 5 -->
<g id="node6" class="node"><title>5</title>
<polygon fill="none" stroke="black" points="481.5,-108 357.5,-108 357.5,-72 481.5,-72 481.5,-108"/>
<text text-anchor="middle" x="419.5" y="-86.3" font-family="Times,serif" font-size="14.00">dhcpcanon.dhcpcap</text>
</g>
<!-- 5&#45;&gt;4 -->
<g id="edge3" class="edge"><title>5&#45;&gt;4</title>
<path fill="none" stroke="black" d="M418.934,-108.286C417.845,-126.637 414.679,-156.214 405.5,-180 390.956,-217.688 363.785,-255.756 344.718,-279.809"/>
<polygon fill="black" stroke="black" points="338.345,-287.709 341.121,-277.1 341.485,-283.817 344.624,-279.926 344.624,-279.926 344.624,-279.926 341.485,-283.817 348.126,-282.751 338.345,-287.709 338.345,-287.709"/>
</g>
<!-- 7 -->
<g id="node8" class="node"><title>7</title>
<polygon fill="none" stroke="black" points="605,-180 454,-180 454,-144 605,-144 605,-180"/>
<text text-anchor="middle" x="529.5" y="-158.3" font-family="Times,serif" font-size="14.00">dhcpcanon.dhcpcaplease</text>
</g>
<!-- 5&#45;&gt;7 -->
<g id="edge4" class="edge"><title>5&#45;&gt;7</title>
<path fill="none" stroke="black" d="M446.409,-108.124C460.658,-117.192 478.346,-128.448 493.736,-138.241"/>
<polygon fill="black" stroke="black" points="502.488,-143.81 491.635,-142.238 498.269,-141.126 494.051,-138.441 494.051,-138.441 494.051,-138.441 498.269,-141.126 496.467,-134.645 502.488,-143.81 502.488,-143.81"/>
</g>
<!-- 8 -->
<g id="node9" class="node"><title>8</title>
<polygon fill="none" stroke="black" points="397,-180 250,-180 250,-144 397,-144 397,-180"/>
<text text-anchor="middle" x="323.5" y="-158.3" font-family="Times,serif" font-size="14.00">dhcpcanon.dhcpcaputils</text>
</g>
<!-- 5&#45;&gt;8 -->
<g id="edge5" class="edge"><title>5&#45;&gt;8</title>
<path fill="none" stroke="black" d="M395.77,-108.303C383.563,-117.204 368.515,-128.177 355.316,-137.801"/>
<polygon fill="black" stroke="black" points="346.957,-143.896 352.386,-134.368 350.997,-140.95 355.037,-138.004 355.037,-138.004 355.037,-138.004 350.997,-140.95 357.689,-141.64 346.957,-143.896 346.957,-143.896"/>
</g>
<!-- 6 -->
<g id="node7" class="node"><title>6</title>
<polygon fill="none" stroke="black" points="396,-36 251,-36 251,-0 396,-0 396,-36"/>
<text text-anchor="middle" x="323.5" y="-14.3" font-family="Times,serif" font-size="14.00">dhcpcanon.dhcpcapfsm</text>
</g>
<!-- 6&#45;&gt;2 -->
<g id="edge6" class="edge"><title>6&#45;&gt;2</title>
<path fill="none" stroke="black" d="M267.044,-36.1013C246.479,-44.4297 224.203,-56.1488 207.5,-72 167.537,-109.925 142.992,-171.094 131.437,-206.102"/>
<polygon fill="black" stroke="black" points="128.392,-215.657 127.141,-204.762 129.91,-210.893 131.428,-206.129 131.428,-206.129 131.428,-206.129 129.91,-210.893 135.716,-207.495 128.392,-215.657 128.392,-215.657"/>
</g>
<!-- 6&#45;&gt;4 -->
<g id="edge7" class="edge"><title>6&#45;&gt;4</title>
<path fill="none" stroke="black" d="M307.089,-36.2931C286.847,-58.9385 253.52,-100.856 240.5,-144 225.006,-195.345 266.993,-249.733 296.75,-280.322"/>
<polygon fill="black" stroke="black" points="304.01,-287.57 293.754,-283.689 300.471,-284.037 296.933,-280.504 296.933,-280.504 296.933,-280.504 300.471,-284.037 300.112,-277.32 304.01,-287.57 304.01,-287.57"/>
</g>
<!-- 6&#45;&gt;5 -->
<g id="edge8" class="edge"><title>6&#45;&gt;5</title>
<path fill="none" stroke="black" d="M347.23,-36.3034C359.437,-45.204 374.485,-56.1768 387.684,-65.8011"/>
<polygon fill="black" stroke="black" points="396.043,-71.8957 385.311,-69.6399 392.003,-68.9498 387.963,-66.0039 387.963,-66.0039 387.963,-66.0039 392.003,-68.9498 390.614,-62.3679 396.043,-71.8957 396.043,-71.8957"/>
</g>
<!-- 6&#45;&gt;8 -->
<g id="edge9" class="edge"><title>6&#45;&gt;8</title>
<path fill="none" stroke="black" d="M323.5,-36.1285C323.5,-60.3298 323.5,-104.789 323.5,-133.607"/>
<polygon fill="black" stroke="black" points="323.5,-143.811 319,-133.811 323.5,-138.811 323.5,-133.811 323.5,-133.811 323.5,-133.811 323.5,-138.811 328,-133.811 323.5,-143.811 323.5,-143.811"/>
</g>
<!-- 9 -->
<g id="node10" class="node"><title>9</title>
<polygon fill="none" stroke="black" points="586,-252 473,-252 473,-216 586,-216 586,-252"/>
<text text-anchor="middle" x="529.5" y="-230.3" font-family="Times,serif" font-size="14.00">dhcpcanon.timers</text>
</g>
<!-- 6&#45;&gt;9 -->
<g id="edge10" class="edge"><title>6&#45;&gt;9</title>
<path fill="none" stroke="black" d="M384.919,-36.0016C462.962,-59.0789 590.461,-102.245 614.5,-144 622.483,-157.866 622.264,-166.01 614.5,-180 607.369,-192.849 595.685,-202.99 583.231,-210.811"/>
<polygon fill="black" stroke="black" points="574.531,-215.86 580.922,-206.948 578.856,-213.35 583.18,-210.84 583.18,-210.84 583.18,-210.84 578.856,-213.35 585.439,-214.732 574.531,-215.86 574.531,-215.86"/>
</g>
<!-- 7&#45;&gt;9 -->
<g id="edge11" class="edge"><title>7&#45;&gt;9</title>
<path fill="none" stroke="black" d="M529.5,-180.303C529.5,-188.017 529.5,-197.288 529.5,-205.888"/>
<polygon fill="black" stroke="black" points="529.5,-215.896 525,-205.896 529.5,-210.896 529.5,-205.896 529.5,-205.896 529.5,-205.896 529.5,-210.896 534,-205.896 529.5,-215.896 529.5,-215.896"/>
</g>
<!-- 8&#45;&gt;4 -->
<g id="edge12" class="edge"><title>8&#45;&gt;4</title>
<path fill="none" stroke="black" d="M323.5,-180.129C323.5,-204.33 323.5,-248.789 323.5,-277.607"/>
<polygon fill="black" stroke="black" points="323.5,-287.811 319,-277.811 323.5,-282.811 323.5,-277.811 323.5,-277.811 323.5,-277.811 323.5,-282.811 328,-277.811 323.5,-287.811 323.5,-287.811"/>
</g>
<!-- 9&#45;&gt;4 -->
<g id="edge13" class="edge"><title>9&#45;&gt;4</title>
<path fill="none" stroke="black" d="M479.37,-252.034C450.462,-261.858 413.931,-274.271 383.502,-284.611"/>
<polygon fill="black" stroke="black" points="373.855,-287.889 381.875,-280.411 378.589,-286.28 383.323,-284.672 383.323,-284.672 383.323,-284.672 378.589,-286.28 384.771,-288.932 373.855,-287.889 373.855,-287.889"/>
</g>
</g>
</svg>
